# AST/ASF file generated using VICON BodyLanguage
# -----------------------------------------------
:version 1.10
:name VICON
:units
  mass 1.0
  length 0.45
  angle deg
:documentation
   .ast/.asf automatically generated from VICON data using
   VICON BodyBuilder and BodyLanguage model FoxedUp or BRILLIANT.MOD
:root
   order TX TY TZ RX RY RZ
   axis XYZ
   position 0 0 0  
   orientation 0 0 0 
:bonedata
  begin
     id 1 
     name lhipjoint
     direction 0.521452 -0.77106 0.36545 
     length 2.0933 
     axis 0 0 0  XYZ
  end
  begin
     id 2 
     name lfemur
     direction 0.34202 -0.939693 0  
     length 6.83441  
     axis 0 0 20  XYZ
    dof rx ry rz
    limits (-160.0 20.0)
           (-70.0 70.0)
           (-60.0 70.0)
  end
  begin
     id 3 
     name ltibia
     direction 0.34202 -0.939693 0   
     length 7.28749   
     axis 0 0 20   XYZ
    dof rx
    limits (-10.0 170.0)
  end
  begin
     id 4 
     name lfoot
     direction 0.100608 -0.276418 0.955757   
     length 1.52195   
     axis -90 7.62852e-016 20   XYZ
    dof rx rz
    limits (-45.0 90.0)
           (-70.0 20.0)
  end
  begin
     id 5 
     name ltoes
     direction 1.53558e-011 -4.21907e-011 1   
     length 0.770459   
     axis -90 7.62852e-016 20   XYZ
    dof rx
    limits (-90.0 20.0)
  end
  begin
     id 6 
     name rhipjoint
     direction -0.488071 -0.788702 0.373812   
     length 2.04648  
     axis 0 0 0  XYZ 
  end
  begin
     id 7 
     name rfemur
     direction -0.34202 -0.939693 0   
     length 6.92583   
     axis 0 0 -20   XYZ
    dof rx ry rz
    limits (-160.0 20.0)
           (-70.0 70.0)
           (-70.0 60.0)
  end
  begin
     id 8 
     name rtibia
     direction -0.34202 -0.939693 0   
     length 7.41043   
     axis 0 0 -20   XYZ
    dof rx
    limits (-10.0 170.0)
 end
 begin
     id 9 
     name rfoot
     direction -0.0784433 -0.215521 0.973343   
     length 1.67708  
     axis -90 -7.62852e-016 -20   XYZ
    dof rx rz
    limits (-45.0 90.0)
           (-20.0 70.0)
  end
  begin
     id 10 
     name rtoes
     direction -1.53551e-011 -4.21842e-011 1   
     length 0.849787   
     axis -90 -7.62852e-016 -20   XYZ
    dof rx
    limits (-90.0 20.0)
  end
  begin
     id 11 
     name lowerback
     direction -0.0122332 0.997575 -0.0685192   
     length 1.98724   
     axis 0 0 0   XYZ
    dof rx ry rz
    limits (-20.0 45.0)
           (-30.0 30.0)
           (-30.0 30.0)
  end
  begin
     id 12 
     name upperback
     direction 0.0182347 0.999724 -0.0148421   
     length 1.99029   
     axis 0 0 0   XYZ
    dof rx ry rz
    limits (-20.0 45.0)
           (-30.0 30.0)
           (-30.0 30.0)
  end
  begin
     id 13 
     name thorax
     direction 0.0242908 0.99956 0.0170184   
     length 1.99573   
     axis 0 0 0   XYZ
    dof rx ry rz
    limits (-20.0 45.0)
           (-30.0 30.0)
           (-30.0 30.0)
  end
  begin
     id 14 
     name lowerneck
     direction 0.0654488 0.985533 0.156338   
     length 1.4285   
     axis 0 0 0   XYZ
    dof rx ry rz
    limits (-20.0 45.0)
           (-30.0 30.0)
           (-30.0 30.0)
  end
  begin
     id 15 
     name upperneck
     direction -0.02953 0.998556 -0.0448842   
     length 1.44709   
     axis 0 0 0   XYZ
    dof rx ry rz
    limits (-20.0 45.0)
           (-30.0 30.0)
           (-30.0 30.0)
  end
  begin
     id 16
     name head
     direction -0.0155588 0.999386 -0.0314063  
     length 1.44689  
     axis 0 0 0   XYZ
    dof rx ry rz
    limits (-20.0 45.0)
           (-30.0 30.0)
           (-30.0 30.0)
  end
  begin
     id 17 
     name lclavicle
     direction 0.968229 0.236071 -0.0824755  
     length 3.60593  
     axis 0 0 0   XYZ
    dof ry rz
    limits (-20.0 10.0)
           (0.0 20.0)
  end
  begin
     id 18 
     name lhumerus
     direction 1 -4.48968e-011 7.8138e-029   
     length 5.06035   
     axis 180 -30 -90   XYZ
    dof rx ry rz
    limits (-60.0 90.0)
           (-90.0 90.0)
           (-90.0 90.0)
  end
  begin
     id 19
     name lradius
     direction 1 -4.48967e-011 9.02887e-028   
     length 3.1478   
     axis 180 -30 -90   XYZ
    dof rx
    limits (-10.0 170.0)
  end
  begin
     id 20
     name lwrist
     direction 1 -4.48961e-011 7.20928e-028   
     length 1.5739   
     axis -5.52449e-016 90 90   XYZ
    dof ry
    limits (-180.0 0.0)
 end
  begin
     id 21 
     name lhand
     direction 1 -4.48972e-011 1.44186e-027   
     length 0.606747   
     axis -9.20027e-016 90 90   XYZ
    dof rx rz
    limits (-90.0 90.0)
           (-45.0 45.0)
  end
  begin
     id 22 
     name lfingers
     direction 1 -4.48943e-011 2.88371e-027   
     length 0.489175   
     axis -1.84005e-015 90 90   XYZ
    dof rx
    limits (0.0 90.0)
  end
  begin
     id 23
     name lthumb
     direction 0.707107 -6.34917e-011 0.707107   
     length 0.70236   
     axis -90 45 2.85299e-015   XYZ
    dof rx rz
    limits (-45.0 45.0)
           (-45.0 45.0)
  end
  begin
     id 24 
     name rclavicle
     direction -0.978165 0.207816 0.0022268   
     length 3.35425  
     axis 0 0 0   XYZ 
    dof ry rz
    limits (-10.0 20.0)
           (-20.0 0.0)
  end
  begin
     id 25 
     name rhumerus
     direction -1 -4.48964e-011 -4.02159e-027  
     length 5.12273   
     axis 180 30 90   XYZ
    dof rx ry rz
    limits (-90.0 60.0)
           (-90.0 90.0)
           (-90.0 90.0)
  end
  begin
     id 26 
     name rradius
     direction -1 -4.48966e-011 1.62746e-027   
     length 3.422   
     axis 180 30 90   XYZ
    dof rx
    limits (-10.0 170.0)
  end
  begin
     id 27 
     name rwrist
     direction -1 -4.4896e-011 7.20928e-028   
     length 1.711   
     axis -5.52449e-016 -90 -90   XYZ
    dof ry
    limits (-180.0 0.0)
  end
  begin
     id 28
     name rhand
     direction -1 -4.48979e-011 1.44186e-027   
     length 0.704599   
     axis -9.20027e-016 -90 -90   XYZ
    dof rx rz
    limits (-90.0 90.0)
           (-45.0 45.0)
  end
  begin
     id 29
     name rfingers
     direction -1 -4.48962e-011 2.88371e-027   
     length 0.568066   
     axis -1.84005e-015 -90 -90   XYZ
    dof rx
    limits (0.0 90.0)
  end
  begin
     id 30
     name rthumb
     direction -0.707107 -6.34949e-011 0.707107   
     length 0.815633   
     axis -90 -45 -2.85299e-015   XYZ
    dof rx rz
    limits (-45.0 45.0)
           (-45.0 45.0)
  end
:hierarchy
  begin
    root lhipjoint rhipjoint lowerback
    lhipjoint lfemur
    lfemur ltibia
    ltibia lfoot
    lfoot ltoes
    rhipjoint rfemur
    rfemur rtibia
    rtibia rfoot
    rfoot rtoes
    lowerback upperback
    upperback thorax
    thorax lowerneck lclavicle rclavicle
    lowerneck upperneck
    upperneck head
    lclavicle lhumerus
    lhumerus lradius
    lradius lwrist
    lwrist lhand lthumb
    lhand lfingers
    rclavicle rhumerus
    rhumerus rradius
    rradius rwrist
    rwrist rhand rthumb
    rhand rfingers
  end

#!OML:ASF Z:\Project 1\Capture day 1\Session 1\Male1.ASF
:FULLY-SPECIFIED
:DEGREES
741
root 24.5724 16.5149 -6.01999 -171.303 34.9313 -180.141
lowerback -5.77063 -2.3173 -0.211042
upperback 0.356408 -3.13279 2.76137
thorax 3.77086 -1.56983 2.69143
lowerneck -4.4561 -2.75915 -2.04743
upperneck -14.616 -2.70084 2.09326
head -3.92741 -0.979515 1.08016
rclavicle 1.98785e-015 6.44062e-014
rhumerus 82.0665 4.85748 -70.7472
rradius 21.4661
rwrist 56.9808
rhand -27.2577 25.1447
rfingers 7.12502
rthumb -0.669006 -4.83398
lclavicle 1.98785e-015 6.44062e-014
lhumerus 79.3012 -8.02548 50.5805
lradius 40.1981
lwrist -18.951
lhand -27.5733 47.1175
lfingers 7.12502
lthumb -0.973789 -282.905
rfemur -15.1237 -6.93034 23.3477
rtibia 19.666
rfoot -14.2226 -6.06792
rtoes -1.45022
lfemur 11.2793 -4.3761 -14.9328
ltibia 17.2275
lfoot 12.806 4.61005
ltoes 46.4715
742
root 24.5692 16.5132 -6.02402 -171.277 34.9499 -180.195
lowerback -5.72533 -2.39064 -0.144941
upperback 0.336079 -3.23351 2.71999
thorax 3.7232 -1.61826 2.6042
lowerneck -4.71737 -2.75059 -2.44805
upperneck -14.261 -2.65166 2.54083
head -3.74253 -0.958663 1.28838
rclavicle -2.36554e-014 1.66979e-014
rhumerus 82.204 5.0131 -69.7633
rradius 21.5934
rwrist 55.9715
rhand -27.1609 25.2885
rfingers 7.12502
rthumb -0.575526 -4.69044
lclavicle -2.36554e-014 1.66979e-014
lhumerus 79.1449 -7.87654 50.338
lradius 40.2349
lwrist -18.9596
lhand -27.9903 47.1186
lfingers 7.12502
lthumb -1.37652 -282.906
rfemur -15.188 -6.84537 23.2926
rtibia 19.7294
rfoot -14.1342 -6.23286
rtoes -4.05891
lfemur 11.2352 -4.33366 -14.9749
ltibia 17.206
lfoot 12.3092 4.2536
ltoes 46.5616
743
root 24.5649 16.5124 -6.02894 -171.29 34.9481 -180.306
lowerback -5.68834 -2.44118 -0.118819
upperback 0.324903 -3.30172 2.68668
thorax 3.6906 -1.65158 2.55044
lowerneck -4.74683 -2.7501 -2.39076
upperneck -14.2119 -2.66356 2.46877
head -3.72068 -0.966783 1.25339
rclavicle 6.77856e-014 -7.95139e-016
rhumerus 82.2907 5.08705 -68.9868
rradius 21.7244
rwrist 55.2306
rhand -27.0859 25.4374
rfingers 7.12502
rthumb -0.503028 -4.5418
lclavicle 6.77856e-014 -7.95139e-016
lhumerus 79.05 -7.74736 50.1284
lradius 40.2119
lwrist -18.9866
lhand -28.1341 45.8245
lfingers 7.12502
lthumb -1.51542 -284.201
rfemur -15.2608 -6.78103 23.1764
rtibia 19.7795
rfoot -14.004 -6.30684
rtoes -4.07726
lfemur 11.1846 -4.38399 -15.0839
ltibia 17.1947
lfoot 12.8415 4.75136
ltoes 46.9974
744
root 24.5611 16.5121 -6.03267 -171.27 34.9198 -180.31
lowerback -5.61722 -2.49251 -0.080883
upperback 0.308915 -3.37122 2.67826
thorax 3.63462 -1.68516 2.51741
lowerneck -4.51896 -2.69455 -2.14058
upperneck -14.2316 -2.63523 2.21684
head -3.77659 -0.962406 1.1303
rclavicle 3.63776e-014 2.8625e-014
rhumerus 82.2817 5.08828 -68.279
rradius 21.9277
rwrist 54.4404
rhand -27.0861 25.4275
rfingers 7.12502
rthumb -0.50328 -4.55161
lclavicle 3.63776e-014 2.8625e-014
lhumerus 78.9258 -7.67629 50.0697
lradius 40.2349
lwrist -19.0589
lhand -28.2726 44.9703
lfingers 7.12502
lthumb -1.64916 -285.056
rfemur -15.3052 -6.80621 23.158
rtibia 19.8119
rfoot -14.0759 -6.1485
rtoes -4.79372
lfemur 11.1409 -4.37108 -15.0777
ltibia 17.1667
lfoot 13.0502 4.76539
ltoes 46.8752
745
root 24.5601 16.5128 -6.0364 -171.216 34.9767 -180.225
lowerback -5.56277 -2.48223 -0.0916523
upperback 0.31868 -3.35683 2.72891
thorax 3.61722 -1.67827 2.5793
lowerneck -4.44079 -2.67075 -2.18772
upperneck -14.0317 -2.62437 2.25003
head -3.71905 -0.965992 1.1481
rclavicle 1.70955e-014 1.82882e-014
rhumerus 82.3089 4.99936 -67.3903
rradius 22.1189
rwrist 53.5607
rhand -27.1105 25.4184
rfingers 7.12502
rthumb -0.526771 -4.56066
lclavicle 1.70955e-014 1.82882e-014
lhumerus 78.8807 -7.68466 50.4169
lradius 40.2571
lwrist -19.3911
lhand -28.0298 45.2029
lfingers 7.12502
lthumb -1.41472 -284.822
rfemur -15.3194 -6.61282 23.1947
rtibia 19.8344
rfoot -14.0008 -6.16046
rtoes -2.09242
lfemur 11.1459 -4.26863 -15.0049
ltibia 17.1177
lfoot 13.1562 4.61118
ltoes 46.6872
746
root 24.5591 16.5135 -6.04069 -171.229 35.0796 -180.207
lowerback -5.51492 -2.42926 -0.164075
upperback 0.3765 -3.28356 2.79821
thorax 3.65507 -1.6441 2.6991
lowerneck -4.71395 -2.71797 -2.51004
upperneck -13.6249 -2.67965 2.46627
head -3.51669 -0.993739 1.26577
rclavicle 5.08889e-014 1.98785e-014
rhumerus 82.4626 4.82648 -66.294
rradius 22.2537
rwrist 52.6337
rhand -27.0968 25.4762
rfingers 7.12502
rthumb -0.513598 -4.50297
lclavicle 5.08889e-014 1.98785e-014
lhumerus 78.935 -7.72512 50.9458
lradius 40.2314
lwrist -19.71
lhand -28.126 45.755
lfingers 7.12502
lthumb -1.50764 -284.271
rfemur -15.2915 -6.4395 23.1796
rtibia 19.849
rfoot -13.7781 -6.33386
rtoes -5.55038
lfemur 11.2282 -4.16656 -15.0053
ltibia 17.0522
lfoot 13.2182 4.43754
ltoes 46.525
747
root 24.558 16.5145 -6.0448 -171.253 35.1404 -180.216
lowerback -5.38767 -2.51056 -0.102281
upperback 0.389827 -3.39479 2.78922
thorax 3.59872 -1.69832 2.6502
lowerneck -4.85046 -2.53219 -2.19226
upperneck -13.3755 -2.48749 2.07028
head -3.4168 -0.907628 1.07211
rclavicle -1.0138e-013 -3.02153e-014
rhumerus 82.655 4.9801 -65.5988
rradius 22.305
rwrist 51.8252
rhand -27.0718 25.5148
rfingers 7.12502
rthumb -0.489412 -4.46438
lclavicle -1.0138e-013 -3.02153e-014
lhumerus 78.7646 -7.54434 51.1314
lradius 40.1945
lwrist -20.0215
lhand -28.2157 46.0226
lfingers 7.12502
lthumb -1.59419 -284.004
rfemur -15.2864 -6.33874 23.1477
rtibia 19.8592
rfoot -13.609 -6.43796
rtoes -5.95016
lfemur 11.292 -4.12765 -15.0438
ltibia 17.0138
lfoot 13.2295 4.26392
ltoes 46.1526
748
root 24.559 16.5164 -6.04882 -171.235 35.188 -180.17
lowerback -5.34307 -2.60222 -0.15212
upperback 0.433592 -3.51577 2.8277
thorax 3.63057 -1.76038 2.70821
lowerneck -4.73439 -2.62002 -2.09527
upperneck -12.9119 -2.6668 2.01933
head -3.27331 -1.02186 1.03707
rclavicle 3.20043e-014 2.62396e-014
rhumerus 82.7919 5.0966 -64.7356
rradius 22.4654
rwrist 50.7863
rhand -27.1018 25.3858
rfingers 7.12502
rthumb -0.51837 -4.59333
lclavicle 3.20043e-014 2.62396e-014
lhumerus 78.6215 -7.32325 51.1307
lradius 40.161
lwrist -20.2116
lhand -28.3939 46.3631
lfingers 7.12502
lthumb -1.76638 -283.665
rfemur -15.3133 -5.98018 23.1176
rtibia 19.8926
rfoot -13.5412 -6.38682
rtoes -4.32745
lfemur 11.3237 -4.17401 -15.0561
ltibia 17.0226
lfoot 13.2624 4.28718
ltoes 46.04
749
root 24.5614 16.5126 -6.05039 -171.186 35.2105 -180.077
lowerback -5.35143 -2.60945 -0.212928
upperback 0.515789 -3.52507 2.8707
thorax 3.72754 -1.76759 2.78379
lowerneck -4.97566 -2.53214 -1.63795
upperneck -12.5405 -2.60511 1.67478
head -3.11166 -1.00966 0.837336
rclavicle 5.69518e-014 -2.70347e-014
rhumerus 82.8343 4.8361 -63.5037
rradius 22.8034
rwrist 49.3965
rhand -27.1814 25.0587
rfingers 7.12502
rthumb -0.595305 -4.92022
lclavicle 5.69518e-014 -2.70347e-014
lhumerus 78.6482 -7.2425 50.9787
lradius 40.2104
lwrist -20.2268
lhand -28.7338 46.9782
lfingers 7.12502
lthumb -2.0946 -283.052
rfemur -15.3289 -5.83116 23.1913
rtibia 19.9666
rfoot -13.4473 -6.42208
rtoes -4.65235
lfemur 11.3449 -4.23333 -15.0061
ltibia 17.0263
lfoot 13.3074 4.30072
ltoes 45.943
750
root 24.5629 16.507 -6.05057 -171.168 35.2256 -180.159
lowerback -5.37191 -2.5899 -0.323787
upperback 0.556496 -3.49413 2.85993
thorax 3.7857 -1.75558 2.83571
lowerneck -5.01023 -2.56868 -1.64952
upperneck -12.2114 -2.6735 1.74621
head -2.98981 -1.05622 0.858804
rclavicle -5.38706e-014 2.62396e-014
rhumerus 82.846 4.48092 -62.3381
rradius 23.1333
rwrist 48.1404
rhand -27.2457 24.8062
rfingers 7.12502
rthumb -0.657421 -5.17252
lclavicle -5.38706e-014 2.62396e-014
lhumerus 78.7239 -7.24264 50.9996
lradius 40.2322
lwrist -20.3181
lhand -29.0401 47.9298
lfingers 7.12502
lthumb -2.39044 -282.104
rfemur -15.4225 -5.91699 23.1734
rtibia 20.0578
rfoot -13.3298 -6.64065
rtoes -6.57053
lfemur 11.2716 -4.1969 -15.0613
ltibia 17.0261
lfoot 13.3645 4.24117
ltoes 45.9288
751
root 24.5614 16.5053 -6.05317 -171.212 35.2675 -180.306
lowerback -5.30154 -2.58409 -0.386385
upperback 0.552554 -3.48164 2.81
thorax 3.74184 -1.75087 2.82324
lowerneck -5.45339 -2.63281 -1.98321
upperneck -11.4508 -2.76176 2.02828
head -2.64288 -1.10963 0.990567
rclavicle 4.16454e-014 -5.80451e-014
rhumerus 82.8633 4.35135 -61.368
rradius 23.3351
rwrist 47.1977
rhand -27.1971 24.8831
rfingers 7.12502
rthumb -0.610464 -5.09581
lclavicle 4.16454e-014 -5.80451e-014
lhumerus 78.701 -7.24835 51.2431
lradius 40.2377
lwrist -20.5933
lhand -29.0569 48.4253
lfingers 7.12502
lthumb -2.40671 -281.609
rfemur -15.5059 -5.84627 23.0375
rtibia 20.1542
rfoot -13.3813 -6.75931
rtoes -6.70814
lfemur 11.229 -4.08934 -15.1701
ltibia 17.0394
lfoot 13.4137 4.2204
ltoes 46.1673
